<?xml version="1.0" encoding="UTF-8" standalone="no"?>
<!DOCTYPE svg PUBLIC "-//W3C//DTD SVG 1.1//EN" "http://www.w3.org/Graphics/SVG/1.1/DTD/svg11.dtd">
<svg xmlns="http://www.w3.org/2000/svg" version="1.1" viewBox="0.00 0.00 64.00 64.00">
<g stroke-width="2.00" fill="none" stroke-linecap="butt">
<path stroke="#f992b3" vector-effect="non-scaling-stroke" d="
  M 36.92 16.03
  Q 32.07 13.64 26.75 16.16
  C 20.58 19.07 18.17 26.04 21.31 32.27
  Q 24.88 39.37 30.81 48.44
  A 1.46 1.45 44.4 0 0 33.26 48.42
  Q 36.33 43.49 39.74 37.82
  Q 43.63 31.36 43.96 28.34
  Q 44.85 19.93 36.92 16.03"
/>
<path stroke="#f992b3" vector-effect="non-scaling-stroke" d="
  M 32.24 44.35
  C 35.31 39.50 38.25 34.88 40.48 29.78
  C 42.21 25.83 40.27 21.34 36.70 19.21
  C 31.42 16.04 25.16 18.80 23.21 24.48
  C 22.22 27.37 23.48 30.09 24.81 32.58
  Q 27.92 38.42 31.78 44.35
  A 0.28 0.28 0.0 0 0 32.24 44.35"
/>
<path stroke="#f992b3" vector-effect="non-scaling-stroke" d="
  M 37.07 26.63
  A 5.08 5.08 0.0 0 0 31.99 21.55
  A 5.08 5.08 0.0 0 0 26.91 26.63
  A 5.08 5.08 0.0 0 0 31.99 31.71
  A 5.08 5.08 0.0 0 0 37.07 26.63"
/>
<path stroke="#f992b3" vector-effect="non-scaling-stroke" d="
  M 34.07 26.63
  A 2.08 2.08 0.0 0 0 31.99 24.55
  A 2.08 2.08 0.0 0 0 29.91 26.63
  A 2.08 2.08 0.0 0 0 31.99 28.71
  A 2.08 2.08 0.0 0 0 34.07 26.63"
/>
</g>
<path fill="#f32567" d="
  M 7.39 0.00
  L 56.72 0.00
  Q 62.83 1.59 64.00 7.62
  L 64.00 56.49
  Q 62.68 62.55 56.61 64.00
  L 7.28 64.00
  Q 1.18 62.41 0.00 56.37
  L 0.00 7.50
  Q 1.32 1.45 7.39 0.00
  Z
  M 36.92 16.03
  Q 32.07 13.64 26.75 16.16
  C 20.58 19.07 18.17 26.04 21.31 32.27
  Q 24.88 39.37 30.81 48.44
  A 1.46 1.45 44.4 0 0 33.26 48.42
  Q 36.33 43.49 39.74 37.82
  Q 43.63 31.36 43.96 28.34
  Q 44.85 19.93 36.92 16.03
  Z"
/>
<path fill="#ffffff" d="
  M 36.92 16.03
  Q 44.85 19.93 43.96 28.34
  Q 43.63 31.36 39.74 37.82
  Q 36.33 43.49 33.26 48.42
  A 1.46 1.45 44.4 0 1 30.81 48.44
  Q 24.88 39.37 21.31 32.27
  C 18.17 26.04 20.58 19.07 26.75 16.16
  Q 32.07 13.64 36.92 16.03
  Z
  M 32.24 44.35
  C 35.31 39.50 38.25 34.88 40.48 29.78
  C 42.21 25.83 40.27 21.34 36.70 19.21
  C 31.42 16.04 25.16 18.80 23.21 24.48
  C 22.22 27.37 23.48 30.09 24.81 32.58
  Q 27.92 38.42 31.78 44.35
  A 0.28 0.28 0.0 0 0 32.24 44.35
  Z"
/>
<path fill="#f32567" d="
  M 40.48 29.78
  C 38.25 34.88 35.31 39.50 32.24 44.35
  A 0.28 0.28 0.0 0 1 31.78 44.35
  Q 27.92 38.42 24.81 32.58
  C 23.48 30.09 22.22 27.37 23.21 24.48
  C 25.16 18.80 31.42 16.04 36.70 19.21
  C 40.27 21.34 42.21 25.83 40.48 29.78
  Z
  M 37.07 26.63
  A 5.08 5.08 0.0 0 0 31.99 21.55
  A 5.08 5.08 0.0 0 0 26.91 26.63
  A 5.08 5.08 0.0 0 0 31.99 31.71
  A 5.08 5.08 0.0 0 0 37.07 26.63
  Z"
/>
<path fill="#ffffff" d="
  M 37.07 26.63
  A 5.08 5.08 0.0 0 1 31.99 31.71
  A 5.08 5.08 0.0 0 1 26.91 26.63
  A 5.08 5.08 0.0 0 1 31.99 21.55
  A 5.08 5.08 0.0 0 1 37.07 26.63
  Z
  M 34.07 26.63
  A 2.08 2.08 0.0 0 0 31.99 24.55
  A 2.08 2.08 0.0 0 0 29.91 26.63
  A 2.08 2.08 0.0 0 0 31.99 28.71
  A 2.08 2.08 0.0 0 0 34.07 26.63
  Z"
/>
<circle fill="#f32567" cx="31.99" cy="26.63" r="2.08"/>
</svg>
